<svg xmlns="http://www.w3.org/2000/svg" viewBox="0 0 1024 1024" width="1024" height="1024">
  <defs>
    <linearGradient id="background" x1="96" y1="64" x2="928" y2="960" gradientUnits="userSpaceOnUse">
      <stop offset="0" stop-color="#34c585"/>
      <stop offset="0.55" stop-color="#1faa6c"/>
      <stop offset="1" stop-color="#0c3b2e"/>
    </linearGradient>
    <radialGradient id="glow" cx="0" cy="0" r="1" gradientTransform="translate(316 242) rotate(49) scale(706)" gradientUnits="userSpaceOnUse">
      <stop stop-color="#ffffff" stop-opacity="0.16"/>
      <stop offset="1" stop-color="#ffffff" stop-opacity="0"/>
    </radialGradient>
  </defs>
  <rect width="1024" height="1024" fill="url(#background)"/>
  <rect width="1024" height="1024" fill="url(#glow)"/>
  <circle cx="512" cy="512" r="348" fill="none" stroke="#fffdf8" stroke-opacity="0.10" stroke-width="28"/>
  <path d="M384 704c-88 0-160-72-160-216 0-162 126-288 288-288s288 108 288 270c0 126-90 180-162 180-54 0-72-36-72-72s36-54 36-108c0-54-36-90-90-90s-90 36-90 108c0 108 18 144 18 216z"
        fill="none" stroke="#fffdf8" stroke-width="62" stroke-linecap="round" stroke-linejoin="round"/>
  <circle cx="746" cy="278" r="76" fill="#fd7e14"/>
  <circle cx="724" cy="256" r="20" fill="#fffdf8" fill-opacity="0.35"/>
</svg>
